<?xml version="1.0" encoding="utf-8"?>
<!-- Generator: Adobe Illustrator 18.1.1, SVG Export Plug-In . SVG Version: 6.00 Build 0)  -->
<svg version="1.1" id="Layer_1" xmlns="http://www.w3.org/2000/svg" xmlns:xlink="http://www.w3.org/1999/xlink" x="0px" y="0px"
	 width="235px" height="115.9px" viewBox="0 0 235 115.9" enable-background="new 0 0 235 115.9" xml:space="preserve">
<g>
	<path fill="#00549E" d="M14.5,33.4L1.5,62.3h3.3l3.4-7.6h15.6l3.4,7.6h3.5L17.6,33.4H14.5z M9.5,51.8L16,37.2l6.5,14.6H9.5z"/>
	<g>
		<defs>
			<rect id="SVGID_1_" x="0" width="235" height="115.9"/>
		</defs>
		<clipPath id="SVGID_2_">
			<use xlink:href="#SVGID_1_"  overflow="visible"/>
		</clipPath>
		<path clip-path="url(#SVGID_2_)" fill="#00549E" d="M43.2,62.8c3.6,0,5.8-1.8,7.2-4.1v3.7h3.1V41.1h-3.1v12.1c0,4-2.7,6.6-6.3,6.6
			c-3.7,0-5.9-2.5-5.9-6.4V41.1h-3.2v13.1C35.1,59.3,38,62.8,43.2,62.8"/>
		<path clip-path="url(#SVGID_2_)" fill="#00549E" d="M72.4,44.2v-3.4c-4-0.2-7.1,2.4-8.6,5.9v-5.5h-3.2v21.2h3.2v-8.4
			c0-6.4,3.8-9.7,8.4-9.7H72.4z"/>
		<path clip-path="url(#SVGID_2_)" fill="#00549E" d="M86.1,40.7c-6.4,0-11.1,5.1-11.1,11.1c0,6,4.6,11,11,11
			c6.4,0,11.1-5.1,11.1-11.1C97.1,45.7,92.5,40.7,86.1,40.7 M86.1,60c-4.5,0-7.8-3.7-7.8-8.3c0-4.6,3.2-8.2,7.7-8.2
			c4.5,0,7.9,3.7,7.9,8.3C93.9,56.3,90.7,60,86.1,60"/>
		<path clip-path="url(#SVGID_2_)" fill="#00549E" d="M106,53.9c0-6.4,3.8-9.7,8.4-9.7h0.2v-3.4c-4-0.2-7.1,2.4-8.6,5.9v-5.5h-3.2
			v21.2h3.2V53.9z"/>
		<path clip-path="url(#SVGID_2_)" fill="#00549E" d="M126.4,40.9c-3.1,0-5.4,0.7-7.7,1.8l0.9,2.6c2-0.9,3.9-1.6,6.4-1.6
			c4,0,6.3,2,6.3,5.8v0.7c-1.9-0.5-3.8-0.9-6.5-0.9c-5.4,0-9,2.4-9,6.9c0,4.4,4,6.6,7.9,6.6c3.7,0,6.2-1.7,7.7-3.6v3.2h3V49.4
			C135.5,43.8,132.2,40.9,126.4,40.9 M132.5,54.5c0,3.4-3.2,5.7-7.1,5.7c-2.9,0-5.3-1.6-5.3-4.3s2.2-4.4,6.2-4.4
			c2.6,0,4.7,0.5,6.2,0.9V54.5z"/>
		<path clip-path="url(#SVGID_2_)" fill="#00549E" d="M21.5,85.3c0,4.5-2.3,6.9-6.2,6.9c-3.8,0-6.2-2.4-6.2-7.1V68.9H2.9v16.4
			C2.9,93.7,7.6,98,15.3,98c7.7,0,12.6-4.3,12.6-12.9V68.9h-6.3V85.3z"/>
		<path clip-path="url(#SVGID_2_)" fill="#00549E" d="M46.3,75.2c-3.2,0-5,1.7-6.4,3.5v-3.1h-6.2v21.9h6.2V85.3
			c0-2.9,1.5-4.5,3.9-4.5c2.4,0,3.8,1.5,3.8,4.5v12.2h6.2V83.4C53.8,78.3,51,75.2,46.3,75.2"/>
		<rect x="59.5" y="75.6" clip-path="url(#SVGID_2_)" fill="#00549E" width="6.2" height="21.9"/>
		<rect x="59.3" y="67.7" clip-path="url(#SVGID_2_)" fill="#00549E" width="6.6" height="5.5"/>
		<polygon clip-path="url(#SVGID_2_)" fill="#00549E" points="82,90.3 77.1,75.6 70.5,75.6 79.1,97.7 84.8,97.7 93.4,75.6 
			86.9,75.6 		"/>
		<path clip-path="url(#SVGID_2_)" fill="#00549E" d="M105.6,75.2c-6.4,0-10.8,5.2-10.8,11.4v0.1c0,6.7,4.9,11.3,11.5,11.3
			c4,0,6.9-1.6,9-4.1l-3.6-3.1c-1.7,1.6-3.2,2.3-5.3,2.3c-2.8,0-4.7-1.5-5.4-4.3h15.3c0-0.6,0.1-0.9,0.1-1.6v-0.1
			C116.3,80.9,112.9,75.2,105.6,75.2 M100.8,84.9c0.5-2.8,2.2-4.7,4.8-4.7c2.6,0,4.3,1.9,4.6,4.7H100.8z"/>
		<path clip-path="url(#SVGID_2_)" fill="#00549E" d="M127.2,80v-4.4H121v21.9h6.2v-8.1c0-5.2,2.5-7.7,6.7-7.7h0.3v-6.5
			C130.5,75,128.4,77,127.2,80"/>
		<path clip-path="url(#SVGID_2_)" fill="#00549E" d="M147.6,84.3c-2.4-0.8-4.5-1.4-4.5-2.6v-0.1c0-0.9,0.8-1.5,2.3-1.5
			c1.6,0,3.8,0.8,5.9,2l2.4-4.3c-2.4-1.6-5.4-2.5-8.2-2.5c-4.4,0-8,2.5-8,7v0.1c0,4.3,3.5,5.7,6.5,6.6c2.4,0.7,4.5,1.2,4.5,2.5v0.1
			c0,1-0.8,1.6-2.6,1.6c-2,0-4.5-0.9-6.9-2.6l-2.7,4.1c2.9,2.3,6.3,3.3,9.4,3.3c4.8,0,8.4-2.2,8.4-7.1v-0.1
			C154.2,86.8,150.6,85.3,147.6,84.3"/>
		<rect x="158.8" y="67.7" clip-path="url(#SVGID_2_)" fill="#00549E" width="6.6" height="5.5"/>
		<rect x="159" y="75.6" clip-path="url(#SVGID_2_)" fill="#00549E" width="6.2" height="21.9"/>
		<path clip-path="url(#SVGID_2_)" fill="#00549E" d="M178.4,70h-6.2v5.6h-2.6v5.3h2.6v10.4c0,5.1,2.6,6.6,6.4,6.6
			c2.1,0,3.6-0.5,4.9-1.3v-5c-0.9,0.5-1.9,0.8-3.1,0.8c-1.4,0-2-0.7-2-2.1v-9.4h5.2v-5.3h-5.2V70z"/>
		<path clip-path="url(#SVGID_2_)" fill="#00549E" d="M201.7,75.6l-4.8,14.9l-5-14.9h-6.6l8.6,22c-0.5,1.1-1.1,1.4-2.2,1.4
			c-0.8,0-1.8-0.4-2.7-0.9l-2.1,4.5c1.6,0.9,3.3,1.5,5.5,1.5c3.7,0,5.5-1.7,7.2-6.1l8.4-22.5H201.7z"/>
		<path clip-path="url(#SVGID_2_)" fill="#00549E" d="M161.9,11.3c0,0.9,0,1.9,0,3v1.4c0,0.6,0,1.1,0,1.5c0,0.1-0.1,0.2-0.2,0.3
			l-1.4,0.3l0,0.3c1,0,1.8,0,2.4,0c0.6,0,1.3,0,2.4,0l0-0.3l-1.3-0.3c-0.2,0-0.2-0.1-0.2-0.3c0-0.5,0-1.1,0-1.8v-2.1
			c0-1,0-2.1,0.1-3.1l-0.1-0.1c-1.1,0.2-2.3,0.4-3.4,0.6l0,0.4L161.9,11.3z"/>
		<path clip-path="url(#SVGID_2_)" fill="#00549E" d="M172.9,17.4c0.8-0.6,1.3-1.4,1.3-2.3c0-0.7-0.2-1.3-0.6-1.8
			c-0.4-0.5-1.1-1-2.2-1.6c1.5-0.9,2.2-1.8,2.2-2.9c0-0.7-0.3-1.3-1-1.7c-0.6-0.4-1.4-0.7-2.4-0.7c-1.1,0-2,0.3-2.7,0.8
			c-0.7,0.5-1.1,1.2-1.1,2.1c0,0.6,0.1,1.1,0.4,1.5s0.8,0.8,1.7,1.3c-1.8,0.9-2.7,1.9-2.7,3.3c0,0.9,0.4,1.6,1.1,2.1
			c0.7,0.5,1.7,0.8,2.9,0.8C171,18.4,172.1,18.1,172.9,17.4 M168.2,8.9c0-0.5,0.2-1,0.5-1.3c0.3-0.3,0.8-0.5,1.3-0.5
			c0.5,0,1,0.2,1.3,0.5c0.3,0.3,0.5,0.8,0.5,1.4c0,0.9-0.4,1.6-1.2,2.3c-0.9-0.4-1.5-0.8-1.8-1.2C168.4,9.9,168.2,9.5,168.2,8.9
			 M167.6,15.3c0-1.2,0.6-2.1,1.7-2.7c1.2,0.6,2.1,1.1,2.5,1.5c0.4,0.4,0.6,0.9,0.6,1.5c0,0.6-0.2,1.1-0.7,1.5
			c-0.5,0.4-1,0.6-1.7,0.6c-0.7,0-1.3-0.2-1.7-0.7C167.9,16.6,167.6,16,167.6,15.3"/>
		<path clip-path="url(#SVGID_2_)" fill="#00549E" d="M178.9,17.5c1.1,0,1.9-0.4,2.6-1.1l0,0c-0.4,1.5-1,2.6-2,3.4
			c-0.9,0.8-2.1,1.4-3.5,1.6l0.1,0.6c2.2-0.3,3.9-1.1,5.2-2.4c1.3-1.3,2-2.9,2-4.8c0-1.4-0.4-2.5-1.2-3.4c-0.8-0.9-1.8-1.3-3-1.3
			c-1.1,0-2,0.4-2.8,1.1c-0.8,0.7-1.2,1.6-1.2,2.7c0,1,0.4,1.9,1.1,2.6C177,17.2,177.9,17.5,178.9,17.5 M177.6,11.4
			c0.4-0.5,0.9-0.7,1.5-0.7c0.7,0,1.3,0.3,1.7,1c0.5,0.7,0.7,1.5,0.7,2.5c0,0.8-0.2,1.4-0.6,1.9c-0.4,0.5-0.9,0.7-1.6,0.7
			c-0.7,0-1.3-0.3-1.7-0.9c-0.4-0.6-0.7-1.4-0.7-2.4C177,12.6,177.2,11.9,177.6,11.4"/>
		<path clip-path="url(#SVGID_2_)" fill="#00549E" d="M191.2,17.9c0-0.7-0.3-1.3-0.9-1.8c-0.6-0.5-1.4-0.8-2.4-0.8v0
			c1.8-0.6,2.8-1.6,2.8-2.8c0-0.7-0.3-1.2-0.9-1.7c-0.6-0.4-1.4-0.6-2.3-0.6c-1.2,0-2.3,0.4-3.4,1.1l0.3,0.6
			c0.8-0.4,1.6-0.6,2.4-0.6c0.6,0,1.1,0.2,1.5,0.5c0.4,0.3,0.6,0.8,0.6,1.3c0,0.7-0.3,1.2-0.9,1.6c-0.6,0.4-1.4,0.7-2.4,0.8l0.1,0.6
			c0.4-0.1,0.7-0.1,1.1-0.1c0.9,0,1.5,0.2,2,0.6c0.5,0.4,0.7,0.9,0.7,1.6c0,0.9-0.5,1.6-1.4,2.2c-0.9,0.6-2.3,1-4.2,1.1L184,22
			c2.3-0.1,4.1-0.5,5.4-1.3C190.6,20,191.2,19,191.2,17.9"/>
		<path clip-path="url(#SVGID_2_)" fill="#49A942" d="M1.3,26.4h131.5c0.7,0,1.3-0.6,1.3-1.3c0-0.7-0.6-1.3-1.3-1.3H1.3
			c-0.7,0-1.3,0.6-1.3,1.3C0,25.8,0.6,26.4,1.3,26.4"/>
		<path clip-path="url(#SVGID_2_)" fill="#49A942" d="M211.7,113.4H1.3c-0.7,0-1.3,0.6-1.3,1.3c0,0.7,0.6,1.3,1.3,1.3h210.4
			c0.7,0,1.3-0.6,1.3-1.3C212.9,113.9,212.4,113.4,211.7,113.4"/>
		<path clip-path="url(#SVGID_2_)" fill="#49A942" d="M235,46.1c0,0-0.2-0.5-0.2-0.7c-0.1-0.3-0.3-0.5-0.6-0.8
			c-0.1-0.1-0.2-0.2-0.2-0.3c0-0.1-0.1-0.1-0.1-0.2c-0.1-0.1-0.2-0.3-0.2-0.5c-0.2-0.4-0.2-0.6-0.5-0.6c0,0-0.1,0-0.1,0
			c-0.1,0-0.2,0-0.3,0c-0.1,0-0.2,0-0.2,0c-0.5,0-0.9,0.1-1.3,0.1c-0.5,0-0.9,0-1.4,0.1c-0.3,0-0.5,0-0.7,0c-0.5,0-0.9,0-1.4,0
			c-1.2,0-2.5,0-3.7,0.3c-0.9,0.2-5.2,0.3-5.2,0.3c-0.5,0-1,0.1-1.5,0.2c-0.2,0-1,0.2-1,0.2c-0.4,0.1-0.8,0.1-1.2,0.2l-0.1,0
			c-0.1,0-0.2,0-0.3,0c-0.1,0-0.3,0-0.5-0.2c-0.1-0.1-0.2-0.3-0.2-0.5c0-0.3,0-0.5,0-0.8c0-0.6-0.1-1.3-0.2-1.9
			c-0.3-2.3-1.2-5.5-3.9-7.8c-1.9-1.7-4.5-3-8-3.7c-1.2-0.3-2.4-0.5-3.6-0.6c-0.2,0-0.4-0.1-0.6-0.1c-0.4,0-0.7-0.1-1-0.1
			c-0.1,0-0.2,0-0.3,0c-0.1,0-0.3,0-0.4,0c0,0.2,0.1,0.5,0.1,0.6c0,0.1,0.1,0.2,0.1,0.3c0.2,1,0.4,2,0.6,3c0.8,3.3,2,5.8,3.5,7.9
			c0.5,0.6,1,1.2,1.6,1.7c0.8,0.7,1.7,1.3,2.7,1.8c0.4,0.2,0.9,0.4,1.4,0.5c0.1,0,0.2,0.1,0.3,0.1c0.2,0,0.5,0.1,0.8,0.3
			c0.3,0.2,0.4,0.4,0.3,0.6c-0.1,0.4-0.6,0.4-1.2,0.4c-0.1,0-0.1,0-0.2,0c-0.3,0-0.6,0-0.8,0.1c-0.6,0-1.1,0.1-1.7,0.1
			c-0.5,0.1-1.2,0.2-1.9,0.2c-1.6,0-3.7-0.1-5.4-1.2c-0.7-0.5-0.8-1.1-1-1.7l0-0.1c-0.1-0.5-0.3-1.1-0.4-1.6c-1-3.1-2.8-5.6-5.2-7.3
			c-2.2-1.6-5.1-2.6-8.7-3.1c-1.3-0.2-2.6-0.3-3.9-0.3c-0.3,0-0.5,0-0.8,0c-0.4,0-0.7,0-1.1,0c-0.2,0-0.4,0-0.6,0
			c0,0.7,0.3,1.3,0.5,1.9c0.1,0.2,0.2,0.4,0.2,0.6c0.5,1.2,1,2.4,1.5,3.5c1.6,3.2,3.4,5.5,5.6,7.1c0.1,0.1,0.2,0.2,0.3,0.2
			c2.2,1.6,5,2.4,8.1,2.4c0.4,0,0.9,0,1.4-0.1c0.3,0,0.6-0.1,1-0.1c0.5-0.1,1-0.1,1.6-0.1c0.1,0,0.3,0,0.5,0c0.3,0,0.5,0,0.7,0.2
			c0.2,0.2,0.2,0.4,0.2,0.5c-0.1,0.3-0.6,0.5-1.3,0.6l-0.1,0c-0.7,0.1-1.4,0.3-2.2,0.4c-0.4,0.1-1,0.1-1.9,0.1c-1,0-2,0-2.8-0.1
			c-1.2-0.1-2.5-0.1-4.1-0.2c-0.2,0-0.4,0-0.5,0l-0.2,0c-0.2,0-0.4,0-0.6-0.1c-0.4,0-0.9-0.1-1.3-0.1l-0.3,0c-0.2,0-0.5,0-0.7,0
			c-0.4-0.1-0.7-0.2-1.1-0.3l-0.3-0.1c-1.4-0.4-2.7-0.9-3.9-1.5c-0.4-0.2-0.7-0.4-0.9-0.6l-0.1-0.1c-0.3-0.2-0.6-0.5-0.8-0.9
			c-0.1-0.3-0.3-0.6-0.3-1c0-0.3,0-0.5,0.1-0.8c0-0.1,0-0.2,0.1-0.4c0-0.5,0.1-1,0.1-1.5c0-1.4-0.1-2.7-0.5-4
			c-0.4-1.6-1.1-3-1.9-4.3c-1.5-2.2-3.7-4.1-6.7-5.9c-0.8-0.5-1.7-1-2.7-1.4c-0.2-0.1-0.4-0.2-0.6-0.3c-0.5-0.3-0.9-0.5-1.5-0.6
			c-0.1,0-0.2-0.1-0.3-0.1c-0.1,0-0.2-0.1-0.3-0.1c-0.1,0.1,0,0.4,0,0.6c0,0.1,0,0.2,0,0.2c0,0.4,0,0.7,0,1.2c0,1.2,0.1,2.4,0.3,3.5
			c0.5,3.7,1.5,6.7,3.1,9c0.8,1.2,1.8,2.2,2.9,3.1c1,0.7,2,1.4,3.2,1.9c0.5,0.2,1.1,0.4,1.6,0.6c0.2,0.1,1.1,0.3,1.1,0.3
			c0.3,0.1,0.6,0.2,0.9,0.4c0.1,0,0.2,0.1,0.2,0.1c0.2,0.1,0.4,0.2,0.5,0.3c0,0,0,0,0.1,0.1c0.2,0.2,0.5,0.4,0.3,0.8
			c0,0.1-0.2,0.3-0.5,0.3c-0.1,0-0.3,0-0.4,0c-0.6-0.1-1.1-0.3-1.7-0.5l-0.2-0.1c-0.7-0.2-1.4-0.4-2.1-0.7c-0.6-0.2-3.3-1.3-5.5-2.3
			c-0.3-0.2-0.4-0.3-0.5-0.4l0,0l-4.3-3l-0.1,0c-0.6-0.3-1-0.9-1.4-1.5l-0.2-0.3c-0.5-0.6-1-1.5-1-2.3v-0.1l0-0.1
			c0.8-2.1,1.6-5.3,0.5-8.9c-0.5-1.7-1.5-3.5-2.9-5.3c-0.9-1.1-1.9-2.2-3-3.3c-0.4-0.4-0.9-0.8-1.3-1.3c-0.4-0.4-0.5-0.5-0.6-0.5
			c-0.1,0.1-0.2,0.5-0.2,0.7c0,0.2-0.1,0.3-0.1,0.4c-0.1,0.5-0.3,1-0.4,1.6c-0.9,4-0.9,7.4,0,10.2c0.1,0.5,0.3,0.9,0.5,1.4
			c0.2,0.4,0.3,0.7,0.4,1.1c0,0.1,0.1,0.1,0.1,0.2c0,0,0,0.3,0,0.3c-0.1,0-0.2-0.1-0.3-0.2c-0.1-0.1-0.3-0.1-0.4-0.2
			c-0.1-0.1-0.2-0.2-0.3-0.3l-0.6-0.6c-0.2-0.2-0.3-0.3-0.5-0.5c-0.3-0.3-2.6-3.2-3.2-4c-0.1-0.1-0.3-0.4-0.5-0.8
			c-0.3-0.4-0.6-0.8-0.9-1.3l-0.5-0.7c-0.2-0.2-0.2-0.5-0.2-0.7l0-0.3l0-0.2c0.1-0.2,0.2-0.4,0.3-0.6c0.2-0.2,0.2-0.3,0.4-0.5
			c0.5-0.7,1-1.3,1.4-2.1c1.2-2,1.8-4.3,1.7-6.5c0-0.5,0-1-0.1-1.5c-0.2-1.5-0.6-3.1-1.4-4.9c-0.5-1.3-1.2-2.6-1.9-3.8
			c-0.3-0.4-0.5-0.9-0.8-1.3c0,0-0.1-0.1-0.1-0.2c0-0.1-0.1-0.2-0.2-0.3c0,0.1-0.2,0.3-0.2,0.3c-0.1,0.2-0.3,0.4-0.4,0.6l-0.1,0.2
			c-0.3,0.5-0.6,1.1-1,1.7c-0.8,1.5-1.4,2.9-1.8,4.3c-0.5,1.4-0.8,2.9-0.8,4.4c0,0.4,0.1,1.5-0.5,0.7c-0.4-0.6-0.7-1.3-1-1.9
			c-0.3-0.7-0.8-1.4-1.1-2.1c-0.5-1-0.9-2.1-1.3-3.2c-0.2-0.5-0.5-1.1-0.9-1.5c-0.3-0.3-0.5-0.4-0.9-0.1c-0.4,0.4-0.2,0.9,0,1.3
			c0.1,0.1,0.1,0.2,0.2,0.3l0.1,0.3c0.1,0.3,0.3,0.7,0.4,1c0.2,0.4,0.3,0.7,0.5,1.1l0.6,1.5c0.1,0.2,0.3,0.5,0.3,0.7
			c-0.2,0-0.4-0.3-0.6-0.4c-0.2-0.1-0.5-0.2-0.7-0.4c-0.3-0.2-0.6-0.4-0.9-0.6c-1.4-0.9-2.9-1.6-4.8-2.2c-1.3-0.4-2.7-0.8-4.1-1
			c-0.1,0-0.8-0.1-1.3-0.1c0,0.1,0.1,0.3,0.1,0.4l0,0.1c0.1,0.4,0.2,0.8,0.4,1.3c0.4,1.2,0.8,2.4,1.3,3.4c0.7,1.5,1.4,2.7,2.2,3.8
			c0.6,0.9,1.3,1.6,2,2.2c1.7,1.5,4,2.6,6.4,3c0.5,0.1,1.1,0.1,1.6,0.2c0.1,0,0.3,0,0.4,0c0.5,0,1,0,1.5,0.2l0.1,0
			c0.2,0.1,0.5,0.1,0.7,0.2c0.2,0.1,0.3,0.2,0.5,0.4l0.2,0.1c0.1,0.1,0.2,0.2,0.3,0.2c0.2,0.1,0.3,0.5,0.8,1.2l0.1,0.3l0.3,0.4
			c0.3,0.4,0.5,0.7,0.6,0.9c0.4,0.8,2.6,3.9,2.6,3.9c0,0.1,0.1,0.2,0.8,0.9c0.8,0.9,1.7,1.8,1.8,2c0.1,0.1,0.2,0.4,3.7,3.5
			c0.1,0.1,0.2,0.2,0.3,0.2c0.1,0.1,0.2,0.1,0.3,0.2c0.3,0.2,0.5,0.4,0.8,0.6c0.2,0.1,0.3,0.2,0.5,0.3c0.2,0.1,0.3,0.2,0.5,0.3
			c0.2,0.2,0.4,0.4,0.6,0.6c0.8,0.5,1.5,1.1,2.3,1.6l2.4,1.7c0.1,0,0.2,0.1,0.2,0.2c0.1,0.1,0.1,0.3,0.1,0.4
			c-0.1,0.2-0.4,0.3-0.6,0.3h0c-0.1,0-0.2,0-0.4,0c0,0-0.1,0-0.2,0c-0.1,0-0.3,0-0.4,0c-0.3,0-0.7-0.1-1-0.2c-0.4-0.1-0.7-0.4-1-0.7
			l-0.2-0.2c-0.2-0.1-0.3-0.3-0.5-0.4c-0.1-0.1-0.2-0.2-0.3-0.3c-0.1-0.1-0.2-0.2-0.3-0.2c-0.2-0.1-0.3-0.3-0.4-0.5l-0.1-0.2
			c-0.6-0.7-1.3-1.4-2-1.9c-1.2-0.9-2.4-1.6-3.8-2.1c-1.7-0.6-3.7-0.9-5.8-0.9c-1.3,0-2.8,0.1-4.3,0.3c-0.7,0.1-1.4,0.2-2.1,0.4
			c-0.1,0-0.1,0-0.3,0c-0.6,0.1-0.9,0.2-1,0.2c0,0.1,0.2,0.3,0.3,0.4l0.1,0.1c0.3,0.4,0.6,0.8,0.9,1.1c0.9,1.1,1.8,2.1,2.8,3
			c2.1,2,4.2,3.3,6.2,4c1.4,0.5,2.8,0.7,4.3,0.7c2.8,0,5.1-0.9,6.2-1.4c0.2-0.1,0.5-0.2,1-0.2c0.2,0,0.5,0,0.7,0c0.2,0,0.3,0,0.5,0
			c1.1,0,2,0.2,3,0.5c0.2,0.1,0.5,0.1,0.7,0.2c0.2,0,0.3,0.1,0.5,0.1l0.1,0l0.1,0c0.2,0.1,0.3,0.1,0.5,0.2c0.5,0.2,0.9,0.3,1.4,0.6
			c0.7,0.3,1.4,0.7,2.1,1.1c0.3,0.2,0.7,0.4,1,0.6c0.1,0.1,0.4,0.2,0.5,0.4c0,0.1,0,0.2,0,0.4c-0.1,0.2-0.3,0.2-0.4,0.2
			c0,0-0.1,0-0.1,0c-0.1,0-0.1,0.1-0.2,0.1c-0.1,0-0.1,0-0.2,0c-0.1,0-0.1,0-0.2,0c-0.2,0-0.5,0.1-0.7,0.2c-0.5,0.1-1,0.3-1.4,0.5
			c-1.1,0.4-2.3,1-3.5,1.8c-0.9,0.6-1.9,1.3-2.8,2.2c-0.7,0.6-1.3,1.2-1.9,1.8c-0.1,0.1-0.3,0.3-0.4,0.4c1.3,0.7,6,3.1,10.7,3.1
			c0.7,0,1.4-0.1,2.1-0.2c0.5-0.1,1-0.2,1.5-0.4c1.2-0.4,2.4-1,3.4-1.8c0.8-0.6,1.6-1.4,2.3-2.3c0.3-0.3,0.5-0.7,0.8-1
			c0-0.1,0.1-0.1,0.1-0.2c0.3-0.4,0.6-0.9,1.1-1l0.1,0c0.4-0.1,3.9-0.2,5-0.2l0.1,0c0.4,0,0.8,0,1.1,0.1l1.2,0.1
			c0.3,0,0.6,0,0.8,0.3c0.1,0.1,0.1,0.3,0,0.4c-0.1,0.2-0.3,0.3-0.5,0.4c-0.1,0.1-0.2,0.1-0.3,0.1c-0.1,0-0.1,0.1-0.2,0.1
			c-0.4,0.1-0.7,0.3-1,0.5c-0.7,0.4-1.4,0.8-2,1.3c-2,1.6-3.6,4-5,7.1c-0.5,1.1-0.9,2.2-1.2,3.4c-0.2,0.6-0.3,1.2-0.5,1.7
			c0,0.1-0.1,0.2-0.1,0.4c-0.1,0.3-0.2,0.5-0.2,0.8h0.1c0.4,0,0.9,0,1.4-0.1c0.2,0,0.4,0,0.6,0c1.3-0.1,2.5-0.2,3.7-0.4
			c3.5-0.6,6.3-1.7,8.4-3.3c0.1-0.1,0.3-0.2,0.4-0.3c1.8-1.5,3.2-3.6,4-6.1c0.4-1.1,0.6-2.3,0.7-3.6c0-0.1,0-0.2,0-0.3
			c0-0.5,0-1,0.5-1.4c0.4-0.4,1-0.5,1.4-0.6c0.2,0,0.3-0.1,0.5-0.1c0.2,0,0.3-0.1,0.5-0.1c0.5-0.2,1-0.3,1.6-0.4l0.9,0
			c1.2-0.1,2.5-0.1,3.7-0.2c0.3,0,0.5,0,0.8,0l1,0c0,0,0.1,0,0.1,0c0.1,0,0.2,0,0.3,0c0.2,0,0.5,0,0.6,0.2c0.1,0.1,0.1,0.2,0.1,0.5
			c-0.1,0.3-0.4,0.5-0.8,0.7c-0.1,0.1-0.2,0.1-0.2,0.2c-0.3,0.3-0.6,0.6-0.9,0.9c-1.7,1.9-2.9,4.5-3.7,7.9c-0.3,1.2-0.5,2.4-0.6,3.7
			c0,0.5-0.1,0.9-0.1,1.4c0,0.3,0,0.5-0.1,0.8c0,0,0,0.1,0,0.2c0.1,0,0.1,0,0.2,0c0.1,0,0.1,0,0.2,0c0.4,0,0.9-0.1,1.3-0.2
			c0.2-0.1,0.5-0.1,0.7-0.1c1.3-0.2,2.5-0.5,3.7-0.8c3.4-1,6-2.4,7.7-4.2c1.4-1.5,2.4-3.6,2.8-5.9c0.2-1.2,0.3-2.5,0.1-3.9
			c0-0.1,0-0.3-0.1-0.5c-0.1-0.4-0.2-0.9,0-1.3c0.3-1,1.3-1,2-1.1c0.1,0,0.3,0,0.4,0c0.3,0,0.7,0,1-0.1c0.3,0,0.6,0,0.9-0.1
			c0.1,0,0.2,0,0.3,0l0.4,0c0.1,0,0.2,0,0.3,0c0.3,0,0.6-0.1,0.9-0.2c0.1,0,0.3-0.1,0.4-0.1c0.5-0.1,1-0.1,1.5-0.1
			c0.2,0,0.3,0,0.5,0c1.3-0.1,2.6-0.1,3.9-0.1l0.8,0c0.3,0,0.6,0,0.9-0.1c0.3,0,0.6-0.1,1-0.1c0.2,0,0.4,0,0.6,0
			c0.3,0,0.7,0.1,1,0.2c0.5,0.1,1.1,0.2,1.6,0.2c0.1,0,0.3,0,0.6,0.1c0.4,0.1,1,0.1,1.4,0.1c0.1,0,0.3,0,0.4,0c0.1,0,0.3,0,0.4,0
			c0.1,0,0.2,0,0.3,0c0,0,0,0,0,0C235,46.3,235,46.2,235,46.1"/>
	</g>
</g>
</svg>
