<?xml version="1.0" encoding="UTF-8"?>
<svg width="274px" height="46px" viewBox="0 0 274 46" version="1.1" xmlns="http://www.w3.org/2000/svg" xmlns:xlink="http://www.w3.org/1999/xlink">
    <!-- Generator: Sketch 50.2 (55047) - http://www.bohemiancoding.com/sketch -->
    <title>Group 7</title>
    <desc>Created with Sketch.</desc>
    <defs></defs>
    <g id="Page-1" stroke="none" stroke-width="1" fill="none" fill-rule="evenodd">
        <g id="Desktop-Condensed" transform="translate(-581.000000, -12.000000)">
            <g id="Header">
                <g id="Group-7" transform="translate(581.000000, 12.000000)">
                    <text id="Aurora-university" font-family="GothamBold" font-size="18" font-weight="bold" fill="#9B9B9B">
                        <tspan x="71" y="30">AURORA UNIVERSITY</tspan>
                    </text>
                    <g id="AU">
                        <path d="M54.2652476,46 C54.9558677,46 55.5172414,45.4392379 55.5172414,44.7465164 C55.5172414,44.0561466 54.9558677,43.4953845 54.2652476,43.4953845 L1.25199376,43.4953845 C0.560851426,43.4953845 0,44.0561466 0,44.7465164 C0,45.4392379 0.560851426,46 1.25199376,46 L54.2652476,46 M54.120596,2.52656514 L1.26217681,2.52656514 C0.565290194,2.52656514 0,1.96083822 0,1.26419714 C0,0.565726913 0.565290194,0 1.26217681,0 L54.120596,0 C54.8182659,0 55.3830339,0.565726913 55.3830339,1.26419714 C55.3830339,1.96083822 54.8182659,2.52656514 54.120596,2.52656514" id="Fill-1" fill="#47AA42"></path>
                        <path d="M11.3277043,24.4970397 L15.1448729,15.3695444 L18.9620415,24.4970397 L11.3277043,24.4970397 Z M0,36.2781419 L6.44343503,36.2781419 L9.07022494,29.9652803 L21.2195209,29.9652803 L23.8463108,36.2781419 L30.4541165,36.2781419 L18.1409734,7.93129089 L12.3128814,7.93129089 L0,36.2781419 Z M42.932939,36.4827586 C35.2266242,36.4827586 30.513269,32.2665774 30.513269,23.993703 L30.513269,7.93103448 L36.8255739,7.93103448 L36.8255739,23.8331892 C36.8255739,28.4103984 39.1607891,30.7801574 43.0138156,30.7801574 C46.8676274,30.7801574 49.2059834,28.4919374 49.2059834,24.034729 L49.2059834,7.93103448 L55.5172414,7.93103448 L55.5172414,23.7929325 C55.5172414,32.3076033 50.6384686,36.4827586 42.932939,36.4827586 Z" id="Fill-3" fill="#00467F"></path>
                    </g>
                </g>
            </g>
        </g>
    </g>
</svg>