<?xml version="1.0" encoding="UTF-8"?>
<svg width="54px" height="44px" viewBox="0 0 54 44" version="1.1" xmlns="http://www.w3.org/2000/svg" xmlns:xlink="http://www.w3.org/1999/xlink">
    <!-- Generator: Sketch 50.2 (55047) - http://www.bohemiancoding.com/sketch -->
    <title>AU</title>
    <desc>Created with Sketch.</desc>
    <defs></defs>
    <g id="Page-1" stroke="none" stroke-width="1" fill="none" fill-rule="evenodd">
        <g id="Mobile" transform="translate(-172.000000, -11.000000)">
            <g id="Header">
                <g id="AU" transform="translate(172.000000, 11.000000)">
                    <path d="M51.905889,44 C52.5664822,44 53.1034483,43.4636189 53.1034483,42.8010157 C53.1034483,42.140662 52.5664822,41.6042809 51.905889,41.6042809 L1.19755925,41.6042809 C0.536466582,41.6042809 0,42.140662 0,42.8010157 C0,43.4636189 0.536466582,44 1.19755925,44 L51.905889,44 M51.7675266,2.41671448 L1.20729956,2.41671448 C0.54071236,2.41671448 0,1.87558439 0,1.20923205 C0,0.54113009 0.54071236,0 1.20729956,0 L51.7675266,0 C52.4348631,0 52.9750759,0.54113009 52.9750759,1.20923205 C52.9750759,1.87558439 52.4348631,2.41671448 51.7675266,2.41671448" id="Fill-1" fill="#47AA42"></path>
                    <path d="M10.8351954,23.431951 L14.4864002,14.7013033 L18.1376049,23.431951 L10.8351954,23.431951 Z M0,34.7008314 L6.16328568,34.7008314 L8.67586734,28.6624421 L20.296933,28.6624421 L22.8095147,34.7008314 L29.1300245,34.7008314 L17.3522354,7.58645216 L11.7775387,7.58645216 L0,34.7008314 Z M41.0662895,34.8965517 C33.6950318,34.8965517 29.1866051,30.8636827 29.1866051,22.9504986 L29.1866051,7.5862069 L35.224462,7.5862069 L35.224462,22.7969636 C35.224462,27.1751637 37.4581461,29.4418897 41.1436497,29.4418897 C44.8299044,29.4418897 47.0665928,27.2531575 47.0665928,22.9897407 L47.0665928,7.5862069 L53.1034483,7.5862069 L53.1034483,22.7584572 C53.1034483,30.9029249 48.436796,34.8965517 41.0662895,34.8965517 Z" id="Fill-3" fill="#00467F"></path>
                </g>
            </g>
        </g>
    </g>
</svg>